<svg width="1565" height="902" viewBox="0 0 1565 902" fill="none" xmlns="http://www.w3.org/2000/svg">
<path opacity="0.15" d="M1360.29 175.6L1079.55 337.196L902.448 236.134L1346.09 0L1242.59 5.9581L869.079 216.958L572.59 44.6857H506.163L835.813 236.134L666.998 333.465L332.995 139.529V177.673L844.207 472.982L775.085 512.578L14.8991 72.9867L0 107.246L741.716 531.65L96.8443 892.969L147.501 901.907L622.644 638.414L692.181 679.771L844.415 591.977L1072.09 724.653H1138.1L1060.17 679.357L1129.5 639.554L1534.61 865.413L1564.41 844.56L1114.37 591.873L1283.91 495.372L1360.19 537.351V498.792L1112.82 356.476L1360.19 214.056V175.6H1360.29ZM700.367 352.641L869.079 255.31L1046.29 356.372L877.577 453.703L700.367 352.641ZM692.181 641.109L655.91 619.341L774.982 550.93L811.253 572.697L692.181 641.109ZM1026.6 660.284L808.247 531.858L877.473 492.158L1096.24 620.481L1026.6 660.284ZM1249.72 475.366L1080.9 572.697L910.738 472.982L1079.55 375.652L1249.72 475.366Z" fill="#C4D3E9"/>
<path d="M711.521 269.278C712.556 267.678 713.685 266.172 714.72 264.666" stroke="#1554B2" stroke-width="4" stroke-linecap="round" stroke-linejoin="round"/>
<path d="M721.402 256.1C745.681 226.921 779.088 208.943 816.072 208.943C857.666 208.943 894.838 231.816 919.494 267.772" stroke="#1554B2" stroke-width="4" stroke-linecap="round" stroke-linejoin="round" stroke-dasharray="11.52 11.52"/>
<path d="M922.411 272.196C923.446 273.796 924.388 275.396 925.329 276.996" stroke="#1554B2" stroke-width="4" stroke-linecap="round" stroke-linejoin="round"/>
<path d="M931.916 258.359C933.327 257.135 934.833 255.912 936.244 254.782" stroke="#1554B2" stroke-width="4" stroke-linecap="round" stroke-linejoin="round"/>
<path d="M945.561 248.099C957.512 240.381 970.781 234.734 984.709 231.533C1003.34 227.298 1023.86 227.768 1040.7 236.804C1057.55 245.934 1069.78 264.854 1067.24 283.867C1064.7 302.881 1044.75 318.788 1026.3 313.893C1024.52 313.423 1022.73 312.764 1021.41 311.446C1019.53 309.658 1018.87 307.022 1018.68 304.481C1017.93 292.809 1026.02 282.361 1035.15 275.114C1055.29 259.3 1082.86 253.559 1107.61 259.959C1128.69 265.419 1147.23 279.726 1158.43 298.457" stroke="#1554B2" stroke-width="4" stroke-linecap="round" stroke-linejoin="round" stroke-dasharray="12.1 12.1"/>
<path d="M1161.06 303.445C1161.91 305.14 1162.66 306.834 1163.42 308.622" stroke="#1554B2" stroke-width="4" stroke-linecap="round" stroke-linejoin="round"/>
<path d="M440.686 313.611C441.156 311.729 441.627 309.94 442.098 308.152" stroke="#1554B2" stroke-width="4" stroke-linecap="round" stroke-linejoin="round"/>
<path d="M445.579 297.139C466.659 239.346 522.934 198.872 587.772 200.754C635.201 202.166 676.702 225.886 702.487 261.559" stroke="#1554B2" stroke-width="4" stroke-linecap="round" stroke-linejoin="round" stroke-dasharray="12.29 12.29"/>
<path d="M705.875 266.266C706.91 267.866 707.946 269.466 708.887 271.066" stroke="#1554B2" stroke-width="4" stroke-linecap="round" stroke-linejoin="round"/>
<path d="M468.044 330.521C480.87 317.692 480.87 296.893 468.044 284.065C455.218 271.236 434.423 271.236 421.598 284.065C408.772 296.893 408.772 317.692 421.598 330.521C434.423 343.349 455.218 343.349 468.044 330.521Z" fill="white"/>
<path d="M444.826 341.285C426.099 341.285 410.854 326.036 410.854 307.305C410.854 288.574 426.099 273.326 444.826 273.326C463.553 273.326 478.798 288.574 478.798 307.305C478.798 326.036 463.553 341.285 444.826 341.285ZM444.826 275.679C427.417 275.679 413.207 289.892 413.207 307.305C413.207 324.718 427.417 338.931 444.826 338.931C462.236 338.931 476.446 324.718 476.446 307.305C476.446 289.892 462.236 275.679 444.826 275.679Z" fill="#1554B2"/>
<path d="M444.827 328.389C453.87 328.389 461.201 321.057 461.201 312.011C461.201 302.966 453.87 295.634 444.827 295.634C435.783 295.634 428.452 302.966 428.452 312.011C428.452 321.057 435.783 328.389 444.827 328.389Z" fill="#F79E85"/>
<path d="M444.826 329.519C435.134 329.519 427.229 321.612 427.229 311.917C427.229 302.223 435.134 294.316 444.826 294.316C454.519 294.316 462.424 302.223 462.424 311.917C462.424 321.707 454.519 329.519 444.826 329.519ZM444.826 296.763C436.451 296.763 429.581 303.634 429.581 312.012C429.581 320.389 436.451 327.26 444.826 327.26C453.202 327.26 460.072 320.389 460.072 312.012C460.072 303.54 453.202 296.763 444.826 296.763Z" fill="#1554B2"/>
<path d="M456.753 314.751C458.288 308.17 454.199 301.59 447.619 300.055C441.04 298.519 434.462 302.61 432.927 309.19C431.392 315.771 435.481 322.351 442.06 323.886C448.64 325.422 455.218 321.332 456.753 314.751Z" fill="white"/>
<path d="M444.827 325.377C437.486 325.377 431.464 319.353 431.464 312.012C431.464 304.67 437.486 298.646 444.827 298.646C452.167 298.646 458.19 304.67 458.19 312.012C458.19 319.353 452.167 325.377 444.827 325.377ZM444.827 300.905C438.71 300.905 433.816 305.893 433.816 311.918C433.816 318.036 438.804 322.93 444.827 322.93C450.944 322.93 455.837 317.942 455.837 311.918C455.837 305.893 450.944 300.905 444.827 300.905Z" fill="#1554B2"/>
<path d="M447.744 289.61H441.815V295.54H447.744V289.61Z" fill="#F79E85"/>
<path d="M447.744 296.763H441.815C441.156 296.763 440.686 296.198 440.686 295.634V289.704C440.686 289.045 441.25 288.574 441.815 288.574H447.744C448.402 288.574 448.873 289.139 448.873 289.704V295.634C448.967 296.198 448.402 296.763 447.744 296.763ZM443.038 294.41H446.614V290.833H443.038V294.41Z" fill="#1554B2"/>
<path d="M451.038 286.221H438.616V290.551H451.038V286.221Z" fill="#F79E85"/>
<path d="M451.037 291.774H438.615C437.957 291.774 437.486 291.21 437.486 290.645V286.315C437.486 285.656 438.051 285.186 438.615 285.186H451.037C451.696 285.186 452.167 285.75 452.167 286.315V290.645C452.167 291.21 451.602 291.774 451.037 291.774ZM439.745 289.421H449.814V287.35H439.745V289.421Z" fill="#1554B2"/>
<path d="M444.826 313.141C444.168 313.141 443.697 312.576 443.697 312.011V306.929L443.603 307.023C443.133 307.493 442.38 307.493 441.909 307.117C441.439 306.646 441.439 305.893 441.815 305.423L443.885 303.164C444.168 302.787 444.732 302.693 445.203 302.881C445.673 303.069 445.956 303.446 445.956 304.011V312.011C445.956 312.576 445.485 313.141 444.826 313.141Z" fill="#1554B2"/>
<path d="M446.897 312.67C446.897 313.8 445.956 314.741 444.826 314.741C443.697 314.741 442.756 313.8 442.756 312.67C442.756 311.541 443.697 310.6 444.826 310.6C445.956 310.6 446.897 311.541 446.897 312.67Z" fill="#1554B2"/>
<path d="M960.578 269.116C963.484 251.207 951.325 234.333 933.42 231.427C915.516 228.521 898.645 240.682 895.74 258.591C892.834 276.499 904.993 293.373 922.897 296.279C940.802 299.186 957.672 287.024 960.578 269.116Z" fill="white"/>
<path d="M928.151 297.798C909.424 297.798 894.179 282.55 894.179 263.819C894.179 245.088 909.424 229.839 928.151 229.839C946.878 229.839 962.123 245.088 962.123 263.819C962.123 282.55 946.878 297.798 928.151 297.798ZM928.151 232.193C910.742 232.193 896.532 246.406 896.532 263.819C896.532 281.232 910.742 295.445 928.151 295.445C945.561 295.445 959.771 281.232 959.771 263.819C959.771 246.406 945.655 232.193 928.151 232.193Z" fill="#1554B2"/>
<path d="M922.034 278.032C920.811 278.032 919.682 277.561 918.741 276.62L909.236 267.113C907.448 265.325 907.448 262.313 909.236 260.524C911.024 258.736 914.035 258.736 915.823 260.524L922.223 266.925L940.667 250.735C942.643 249.041 945.561 249.229 947.255 251.206C948.948 253.182 948.76 256.1 946.784 257.795L925.046 276.902C924.293 277.655 923.164 278.032 922.034 278.032Z" fill="#48BD8F" stroke="#1554B2" stroke-width="2" stroke-miterlimit="10"/>
<path d="M725.568 282.52C741.519 273.882 747.449 253.946 738.813 237.992C730.177 222.037 710.246 216.106 694.295 224.743C678.344 233.381 672.414 253.317 681.049 269.272C689.685 285.226 709.617 291.158 725.568 282.52Z" fill="white"/>
<path d="M709.921 287.633C691.194 287.633 675.949 272.384 675.949 253.653C675.949 234.922 691.194 219.674 709.921 219.674C728.648 219.674 743.893 234.922 743.893 253.653C743.893 272.384 728.648 287.633 709.921 287.633ZM709.921 222.027C692.512 222.027 678.302 236.24 678.302 253.653C678.302 271.067 692.512 285.28 709.921 285.28C727.33 285.28 741.54 271.067 741.54 253.653C741.54 236.24 727.33 222.027 709.921 222.027Z" fill="#1554B2"/>
<path d="M726.296 245.935C726.296 236.522 718.673 228.992 709.357 228.992C700.04 228.992 692.418 236.616 692.418 245.935C692.418 248.382 692.982 250.735 693.923 252.806L694.111 253.183C694.488 253.841 694.864 254.594 695.241 255.159L707.004 276.149C708.792 277.844 711.615 277.749 713.215 275.961L724.319 254.218C724.508 253.841 724.79 253.465 724.978 252.994L725.26 252.524C725.825 250.453 726.296 248.288 726.296 245.935ZM709.357 254.971C704.369 254.971 700.322 250.924 700.322 245.935C700.322 240.946 704.369 236.899 709.357 236.899C714.344 236.899 718.391 240.946 718.391 245.935C718.391 250.924 714.344 254.971 709.357 254.971Z" fill="#F1614C"/>
<path d="M709.921 278.502C708.51 278.502 707.192 277.938 706.063 276.996C705.969 276.902 705.875 276.808 705.875 276.714L694.111 255.818C693.641 255.159 693.264 254.406 692.982 253.747L692.794 253.371C692.7 253.277 692.7 253.088 692.7 252.994C691.759 250.735 691.288 248.382 691.288 245.935C691.288 235.958 699.475 227.769 709.451 227.769C719.426 227.769 727.613 235.958 727.613 245.935C727.613 248.288 727.142 250.641 726.295 252.806C726.295 252.9 726.201 252.994 726.201 253.088L725.919 253.559C725.731 254.03 725.543 254.406 725.26 254.783L714.156 276.432C714.156 276.526 714.062 276.62 713.968 276.714C713.027 277.843 711.615 278.408 710.203 278.502C710.015 278.502 709.921 278.502 709.921 278.502ZM707.757 275.396C708.415 275.961 709.168 276.243 710.015 276.149C710.768 276.149 711.521 275.773 712.085 275.208L723.096 253.653C723.284 253.277 723.472 252.9 723.66 252.524L723.755 252.241C723.755 252.147 723.755 252.147 723.849 252.053C724.696 250.076 725.072 248.006 725.072 245.935C725.072 237.181 718.014 230.122 709.262 230.122C700.511 230.122 693.453 237.181 693.453 245.935C693.453 248.194 693.923 250.359 694.77 252.335C694.77 252.43 694.77 252.43 694.864 252.524L694.958 252.618V252.712C695.241 253.371 695.617 253.936 695.993 254.594C695.993 254.594 695.993 254.594 695.993 254.689L707.757 275.396ZM709.356 256.1C703.71 256.1 699.193 251.488 699.193 245.935C699.193 240.287 703.804 235.769 709.356 235.769C715.003 235.769 719.52 240.381 719.52 245.935C719.52 251.488 714.909 256.1 709.356 256.1ZM709.356 238.028C705.028 238.028 701.546 241.511 701.546 245.841C701.546 250.17 705.028 253.653 709.356 253.653C713.685 253.653 717.167 250.17 717.167 245.841C717.167 241.605 713.685 238.028 709.356 238.028Z" fill="#1554B2"/>
<path d="M1165.39 301.092L1155.89 305.893C1155.51 306.081 1155.42 306.646 1155.79 306.928L1165.01 313.046C1165.58 313.423 1166.24 313.046 1166.24 312.388V301.657C1166.24 301.187 1165.77 300.904 1165.39 301.092Z" fill="#1554B2"/>
<path d="M909.872 661.581C918.17 661.581 924.898 654.851 924.898 646.551C924.898 638.25 918.17 631.521 909.872 631.521C901.573 631.521 894.845 638.25 894.845 646.551C894.845 654.851 901.573 661.581 909.872 661.581Z" fill="white"/>
<path d="M909.871 661.788C905.83 661.788 901.995 660.233 899.197 657.331C896.399 654.428 894.741 650.697 894.741 646.654C894.741 642.612 896.296 638.777 899.197 635.978C902.099 633.179 905.83 631.521 909.871 631.521C913.913 631.521 917.747 633.076 920.545 635.978C923.447 638.88 925.002 642.612 925.002 646.654C925.002 650.697 923.447 654.532 920.545 657.331C917.747 660.129 913.913 661.788 909.871 661.788ZM909.871 631.625C905.83 631.625 902.099 633.179 899.301 635.978C896.503 638.777 894.949 642.612 894.949 646.551C894.949 650.593 896.503 654.325 899.301 657.123C902.099 659.922 905.933 661.477 909.871 661.477C913.913 661.477 917.644 659.922 920.442 657.123C923.24 654.325 924.794 650.49 924.794 646.551C924.794 642.508 923.24 638.777 920.442 635.978C917.644 633.179 913.809 631.625 909.871 631.625Z" fill="#1554B2"/>
<path d="M909.871 627.79C897.539 627.79 888.731 639.606 892.254 651.423L906.866 681.586C907.903 684.281 911.841 684.281 912.877 681.586L927.489 651.423C931.012 639.606 922.1 627.79 909.871 627.79ZM910.286 660.026C902.825 660.233 896.71 654.118 896.918 646.655C897.125 639.917 902.617 634.32 909.457 634.112C916.918 633.905 923.033 640.021 922.825 647.484C922.618 654.325 917.022 659.819 910.286 660.026Z" fill="#B5CBEC"/>
<path d="M909.871 683.659C908.421 683.659 907.281 682.83 906.763 681.586L892.151 651.422C891.322 648.52 891.114 645.618 891.736 642.716C892.254 640.021 893.394 637.326 895.052 635.149C896.71 632.868 898.887 631.003 901.374 629.759C903.965 628.411 906.866 627.686 909.871 627.686C912.877 627.686 915.675 628.411 918.369 629.759C920.856 631.003 923.033 632.868 924.691 635.149C926.349 637.429 927.489 640.021 928.007 642.716C928.525 645.618 928.421 648.52 927.592 651.422L912.98 681.586C912.462 682.83 911.219 683.659 909.871 683.659ZM892.358 651.422L906.97 681.586C907.488 682.83 908.524 683.555 909.871 683.555C911.219 683.555 912.359 682.83 912.773 681.586L927.385 651.422C929.043 645.825 928.007 639.917 924.483 635.252C920.96 630.588 915.675 627.893 909.871 627.893C904.068 627.893 898.679 630.588 895.26 635.252C891.736 639.917 890.7 645.825 892.358 651.422ZM909.871 660.129C908.213 660.129 906.555 659.818 905.001 659.197C903.343 658.575 901.892 657.538 900.648 656.294C899.405 655.05 898.472 653.599 897.747 651.941C897.021 650.282 896.71 648.416 896.814 646.654C896.918 643.337 898.265 640.228 900.648 637.844C903.032 635.46 906.141 634.112 909.457 634.009C911.322 633.905 913.084 634.216 914.742 634.942C916.4 635.563 917.851 636.6 919.095 637.844C920.338 639.088 921.271 640.539 921.996 642.197C922.722 643.856 923.033 645.721 922.929 647.484C922.825 650.801 921.478 653.91 919.095 656.294C916.711 658.678 913.602 660.026 910.286 660.129V660.026V660.129C910.182 660.129 909.975 660.129 909.871 660.129ZM909.871 634.32C909.768 634.32 909.561 634.32 909.457 634.32C906.244 634.423 903.136 635.771 900.856 638.051C898.576 640.332 897.228 643.441 897.125 646.654C897.021 648.416 897.332 650.282 898.058 651.941C898.679 653.496 899.612 654.947 900.856 656.191C902.099 657.434 903.55 658.367 905.104 658.989C906.763 659.611 908.524 660.026 910.39 659.922C913.602 659.818 916.711 658.471 918.991 656.191C921.271 653.91 922.618 650.801 922.722 647.587C922.825 645.825 922.514 643.959 921.789 642.301C921.167 640.746 920.235 639.295 918.991 638.051C917.747 636.807 916.297 635.874 914.742 635.252C913.188 634.631 911.53 634.32 909.871 634.32Z" fill="#1554B2"/>
<path d="M909.768 688.012C915.434 688.012 920.027 687.641 920.027 687.183C920.027 686.725 915.434 686.354 909.768 686.354C904.102 686.354 899.508 686.725 899.508 687.183C899.508 687.641 904.102 688.012 909.768 688.012Z" fill="#1554B2"/>
<path d="M612.566 648.019C623.898 648.019 633.085 638.83 633.085 627.496C633.085 616.161 623.898 606.972 612.566 606.972C601.233 606.972 592.047 616.161 592.047 627.496C592.047 638.83 601.233 648.019 612.566 648.019Z" fill="white"/>
<path d="M612.565 648.123C607.073 648.123 601.891 645.946 597.953 642.111C594.015 638.172 591.943 632.989 591.943 627.495C591.943 622.002 594.119 616.819 597.953 612.88C601.891 608.941 607.073 606.868 612.565 606.868C618.058 606.868 623.239 609.045 627.177 612.88C631.115 616.819 633.188 622.002 633.188 627.495C633.188 632.989 631.012 638.172 627.177 642.111C623.239 645.946 618.058 648.123 612.565 648.123ZM612.565 607.076C607.073 607.076 601.995 609.149 598.161 613.088C594.326 616.923 592.15 622.105 592.15 627.495C592.15 632.989 594.223 638.068 598.161 641.903C601.995 645.738 607.177 647.915 612.565 647.915C617.954 647.915 623.136 645.842 626.97 641.903C630.804 638.068 632.981 632.885 632.981 627.495C632.981 622.002 630.908 616.923 626.97 613.088C623.136 609.252 617.954 607.076 612.565 607.076Z" fill="#1554B2"/>
<path d="M612.566 601.893C595.881 601.893 583.86 617.959 588.523 634.026L608.42 675.073C609.871 678.804 615.156 678.804 616.607 675.073L636.504 634.026C641.271 618.063 629.25 601.893 612.566 601.893ZM613.084 645.842C602.928 646.153 594.534 637.861 594.948 627.703C595.259 618.478 602.721 611.015 611.944 610.704C622.1 610.393 630.494 618.685 630.079 628.843C629.872 638.068 622.307 645.531 613.084 645.842Z" fill="#B5CBEC"/>
<path d="M612.565 677.975C610.7 677.975 609.042 676.835 608.317 675.073L588.419 634.026C587.28 630.087 587.072 626.148 587.798 622.209C588.523 618.478 590.078 614.953 592.357 611.844C594.637 608.838 597.643 606.246 600.959 604.484C604.482 602.619 608.42 601.686 612.462 601.686C616.503 601.686 620.441 602.619 623.965 604.484C627.281 606.246 630.286 608.734 632.566 611.844C634.846 614.85 636.401 618.478 637.126 622.209C637.851 626.148 637.644 630.19 636.504 634.026L616.607 675.073C616.089 676.938 614.431 677.975 612.565 677.975ZM588.627 634.026L608.524 674.969C609.146 676.627 610.7 677.664 612.462 677.664C614.224 677.664 615.778 676.627 616.4 674.969L636.297 634.026C638.577 626.459 637.126 618.374 632.359 612.051C627.592 605.728 620.338 602.1 612.462 602.1C604.482 602.1 597.228 605.728 592.565 612.051C587.901 618.374 586.45 626.459 588.627 634.026ZM612.565 645.946C610.286 645.946 608.006 645.531 605.933 644.702C603.757 643.769 601.788 642.525 600.026 640.763C598.368 639.105 597.021 637.032 596.088 634.855C595.155 632.575 594.741 630.087 594.845 627.599C594.948 623.142 596.814 618.892 600.026 615.679C603.239 612.466 607.488 610.6 611.944 610.496C614.431 610.393 616.918 610.807 619.198 611.74C621.374 612.673 623.343 613.917 625.105 615.679C626.763 617.337 628.11 619.411 629.043 621.587C629.976 623.868 630.39 626.355 630.286 628.843C630.183 633.3 628.317 637.55 625.105 640.763C621.892 643.976 617.643 645.842 613.187 645.946V645.842V645.946C612.98 645.946 612.773 645.946 612.565 645.946ZM612.565 610.704C612.358 610.704 612.151 610.704 611.944 610.704C607.488 610.807 603.342 612.673 600.13 615.783C596.917 618.996 595.155 623.142 595.052 627.599C594.948 630.087 595.363 632.471 596.295 634.751C597.228 636.928 598.472 638.897 600.13 640.556C601.788 642.214 603.757 643.562 605.933 644.391C608.213 645.324 610.597 645.739 613.084 645.635C617.54 645.531 621.685 643.665 624.898 640.556C628.11 637.343 629.872 633.196 629.975 628.739C630.079 626.252 629.665 623.868 628.732 621.587C627.799 619.411 626.556 617.441 624.898 615.783C623.239 614.124 621.27 612.777 619.094 611.947C617.022 611.222 614.845 610.704 612.565 610.704Z" fill="#1554B2"/>
<path d="M612.462 683.883C620.188 683.883 626.452 683.373 626.452 682.743C626.452 682.113 620.188 681.603 612.462 681.603C604.735 681.603 598.472 682.113 598.472 682.743C598.472 683.373 604.735 683.883 612.462 683.883Z" fill="#1554B2"/>
<path d="M340.875 225.626C347.834 225.626 353.476 219.983 353.476 213.022C353.476 206.061 347.834 200.418 340.875 200.418C333.915 200.418 328.273 206.061 328.273 213.022C328.273 219.983 333.915 225.626 340.875 225.626Z" fill="white"/>
<path d="M340.874 225.719C337.514 225.719 334.247 224.412 331.914 221.984C329.487 219.557 328.18 216.383 328.18 213.021C328.18 209.66 329.487 206.393 331.914 204.059C334.341 201.631 337.514 200.324 340.874 200.324C344.235 200.324 347.502 201.631 349.835 204.059C352.262 206.486 353.569 209.66 353.569 213.021C353.569 216.383 352.262 219.65 349.835 221.984C347.408 224.412 344.235 225.719 340.874 225.719ZM340.874 200.418C337.514 200.418 334.341 201.725 332.007 204.059C329.673 206.393 328.367 209.567 328.367 212.928C328.367 216.289 329.673 219.463 332.007 221.798C334.341 224.132 337.514 225.439 340.874 225.439C344.235 225.439 347.408 224.132 349.742 221.798C352.076 219.463 353.382 216.289 353.382 212.928C353.382 209.567 352.076 206.393 349.742 204.059C347.408 201.725 344.235 200.418 340.874 200.418Z" fill="#1554B2"/>
<path d="M340.875 197.243C330.607 197.243 323.14 207.14 326.127 217.036L338.354 242.337C339.288 244.671 342.555 244.671 343.395 242.337L355.623 217.036C358.61 207.14 351.142 197.243 340.875 197.243ZM341.248 224.318C334.994 224.505 329.86 219.37 330.047 213.115C330.234 207.42 334.901 202.845 340.501 202.658C346.755 202.471 351.889 207.606 351.702 213.862C351.516 219.463 346.942 224.131 341.248 224.318Z" fill="#B5CBEC"/>
<path d="M340.875 244.111C339.661 244.111 338.728 243.458 338.261 242.337L326.033 217.129C325.286 214.702 325.193 212.275 325.66 209.847C326.126 207.513 327.06 205.366 328.46 203.499C329.86 201.631 331.727 200.044 333.781 199.017C336.021 197.897 338.354 197.337 340.875 197.337C343.395 197.337 345.822 197.897 347.968 199.017C350.022 200.044 351.889 201.631 353.289 203.499C354.689 205.366 355.716 207.607 356.089 209.847C356.556 212.275 356.463 214.702 355.716 217.129L343.488 242.337C343.021 243.458 341.995 244.111 340.875 244.111ZM326.126 217.036L338.354 242.337C338.728 243.364 339.661 244.018 340.781 244.018C341.901 244.018 342.835 243.364 343.208 242.337L355.436 217.036C356.836 212.368 355.903 207.42 353.009 203.499C350.115 199.577 345.635 197.337 340.688 197.337C335.834 197.337 331.354 199.577 328.367 203.499C325.66 207.42 324.726 212.368 326.126 217.036ZM340.875 224.412C339.474 224.412 338.074 224.132 336.767 223.571C335.367 223.011 334.154 222.171 333.127 221.144C332.1 220.117 331.26 218.903 330.7 217.503C330.14 216.102 329.86 214.609 329.954 213.022C330.047 210.221 331.167 207.607 333.127 205.646C335.087 203.685 337.701 202.565 340.501 202.472C342.088 202.378 343.581 202.658 344.982 203.218C346.382 203.779 347.595 204.619 348.622 205.646C349.649 206.673 350.489 207.887 351.049 209.287C351.609 210.687 351.889 212.181 351.796 213.768C351.702 216.569 350.582 219.183 348.622 221.144C346.662 223.105 344.048 224.225 341.248 224.318V224.225V224.318C341.061 224.412 340.968 224.412 340.875 224.412ZM340.875 202.658C340.781 202.658 340.594 202.658 340.501 202.658C337.794 202.752 335.181 203.872 333.22 205.833C331.26 207.793 330.14 210.407 330.047 213.115C329.954 214.609 330.234 216.102 330.794 217.503C331.354 218.81 332.1 220.024 333.127 221.051C334.154 222.078 335.367 222.918 336.674 223.385C338.074 223.945 339.568 224.225 341.061 224.132C343.768 224.038 346.382 222.918 348.342 220.957C350.302 218.997 351.422 216.383 351.515 213.675C351.609 212.181 351.329 210.687 350.769 209.287C350.209 207.98 349.462 206.766 348.435 205.739C347.408 204.712 346.195 203.872 344.888 203.405C343.581 202.938 342.275 202.658 340.875 202.658Z" fill="#1554B2"/>
<path d="M340.781 247.659C345.524 247.659 349.369 247.366 349.369 247.005C349.369 246.644 345.524 246.352 340.781 246.352C336.038 246.352 332.194 246.644 332.194 247.005C332.194 247.366 336.038 247.659 340.781 247.659Z" fill="#1554B2"/>
</svg>
