<svg width="1038" height="924" viewBox="0 0 1038 924" fill="none" xmlns="http://www.w3.org/2000/svg">
<path opacity="0.15" d="M902.566 179.902L716.294 345.456L598.783 241.918L893.146 0L824.469 6.10405L576.642 222.273L379.919 45.7803H335.844L554.57 241.918L442.56 341.633L220.946 142.947V182.026L560.14 484.569L514.277 525.134L9.88571 74.7746L0 109.873L492.136 544.674L64.2571 914.844L97.8686 924L413.13 654.052L459.269 696.423L560.277 606.478L711.344 742.405H755.144L703.436 695.998L749.437 655.22L1018.23 886.613L1038 865.249L739.398 606.372L851.889 507.506L902.497 550.514V511.011L738.366 365.208L902.497 219.299V179.902H902.566ZM464.701 361.279L576.642 261.564L694.222 365.102L582.281 464.817L464.701 361.279ZM459.269 656.813L435.203 634.513L514.208 564.426L538.274 586.726L459.269 656.813ZM681.158 676.459L536.28 544.886L582.212 504.214L727.365 635.681L681.158 676.459ZM829.199 487.011L717.188 586.726L604.284 484.569L716.294 384.854L829.199 487.011Z" fill="#C4D3E9"/>
<path d="M459.392 226.687C482.72 196.743 515.533 177.701 552.497 176.512C594.07 175.175 631.958 196.841 657.756 231.986" stroke="#1554B2" stroke-width="4" stroke-linecap="round" stroke-linejoin="round" stroke-dasharray="11.52 11.52"/>
<path d="M660.814 236.314C661.9 237.88 662.893 239.449 663.885 241.018" stroke="#1554B2" stroke-width="4" stroke-linecap="round" stroke-linejoin="round"/>
<path d="M651 215.146C662.951 207.427 676.22 201.78 690.148 198.579C708.781 194.344 729.296 194.814 746.14 203.85C762.985 212.981 775.219 231.9 772.678 250.913C770.137 269.927 750.187 285.834 731.742 280.94C729.954 280.469 728.166 279.81 726.849 278.492C724.967 276.704 724.308 274.068 724.12 271.527C723.367 259.855 731.46 249.407 740.588 242.16C760.727 226.347 788.3 220.605 813.049 227.005C834.129 232.465 852.668 246.772 863.866 265.503" stroke="#1554B2" stroke-width="4" stroke-linecap="round" stroke-linejoin="round" stroke-dasharray="12.1 12.1"/>
<path d="M217.311 272.92C217.782 271.038 218.252 269.249 218.723 267.461" stroke="#1554B2" stroke-width="4" stroke-linecap="round" stroke-linejoin="round"/>
<path d="M222 256C238 198.475 280.714 158.189 329.929 160.063C365.929 161.468 397.429 185.078 417 220.586" stroke="#1554B2" stroke-width="4" stroke-linecap="round" stroke-linejoin="round" stroke-dasharray="12.29 12.29"/>
<path d="M244.669 289.829C257.495 277.001 257.495 256.202 244.669 243.373C231.844 230.545 211.049 230.545 198.223 243.373C185.397 256.202 185.397 277.001 198.223 289.829C211.049 302.658 231.844 302.658 244.669 289.829Z" fill="white"/>
<path d="M221.452 300.593C202.725 300.593 187.48 285.345 187.48 266.614C187.48 247.883 202.725 232.634 221.452 232.634C240.179 232.634 255.424 247.883 255.424 266.614C255.424 285.345 240.179 300.593 221.452 300.593ZM221.452 234.987C204.042 234.987 189.832 249.2 189.832 266.614C189.832 284.027 204.042 298.24 221.452 298.24C238.861 298.24 253.071 284.027 253.071 266.614C253.071 249.2 238.861 234.987 221.452 234.987Z" fill="#1554B2"/>
<path d="M221.452 287.698C230.495 287.698 237.826 280.365 237.826 271.32C237.826 262.275 230.495 254.942 221.452 254.942C212.409 254.942 205.078 262.275 205.078 271.32C205.078 280.365 212.409 287.698 221.452 287.698Z" fill="#F79E85"/>
<path d="M221.452 288.828C211.759 288.828 203.854 280.921 203.854 271.226C203.854 261.531 211.759 253.625 221.452 253.625C231.145 253.625 239.05 261.531 239.05 271.226C239.05 281.015 231.145 288.828 221.452 288.828ZM221.452 256.072C213.077 256.072 206.207 262.943 206.207 271.32C206.207 279.697 213.077 286.569 221.452 286.569C229.827 286.569 236.697 279.697 236.697 271.32C236.697 262.849 229.827 256.072 221.452 256.072Z" fill="#1554B2"/>
<path d="M233.378 274.059C234.913 267.478 230.824 260.899 224.245 259.363C217.665 257.828 211.087 261.918 209.552 268.499C208.017 275.08 212.106 281.659 218.686 283.195C225.265 284.73 231.843 280.64 233.378 274.059Z" fill="white"/>
<path d="M221.452 284.686C214.112 284.686 208.089 278.662 208.089 271.32C208.089 263.978 214.112 257.954 221.452 257.954C228.792 257.954 234.815 263.978 234.815 271.32C234.815 278.662 228.792 284.686 221.452 284.686ZM221.452 260.213C215.335 260.213 210.442 265.202 210.442 271.226C210.442 277.344 215.429 282.239 221.452 282.239C227.569 282.239 232.463 277.25 232.463 271.226C232.463 265.202 227.569 260.213 221.452 260.213Z" fill="#1554B2"/>
<path d="M224.369 248.918H218.441V254.848H224.369V248.918Z" fill="#F79E85"/>
<path d="M224.369 256.072H218.441C217.782 256.072 217.311 255.507 217.311 254.942V249.012C217.311 248.353 217.876 247.883 218.441 247.883H224.369C225.028 247.883 225.498 248.448 225.498 249.012V254.942C225.593 255.507 225.028 256.072 224.369 256.072ZM219.664 253.719H223.24V250.142H219.664V253.719Z" fill="#1554B2"/>
<path d="M227.663 245.53H215.241V249.86H227.663V245.53Z" fill="#F79E85"/>
<path d="M227.663 251.083H215.241C214.582 251.083 214.112 250.518 214.112 249.953V245.624C214.112 244.965 214.676 244.494 215.241 244.494H227.663C228.322 244.494 228.792 245.059 228.792 245.624V249.953C228.792 250.518 228.227 251.083 227.663 251.083ZM216.37 248.73H226.439V246.659H216.37V248.73Z" fill="#1554B2"/>
<path d="M221.452 272.45C220.793 272.45 220.323 271.885 220.323 271.32V266.237L220.229 266.331C219.758 266.802 219.005 266.802 218.535 266.425C218.064 265.955 218.064 265.202 218.441 264.731L220.511 262.472C220.793 262.096 221.358 262.002 221.828 262.19C222.299 262.378 222.581 262.755 222.581 263.319V271.32C222.581 271.885 222.111 272.45 221.452 272.45Z" fill="#1554B2"/>
<path d="M223.522 271.979C223.522 273.108 222.581 274.05 221.452 274.05C220.323 274.05 219.382 273.108 219.382 271.979C219.382 270.849 220.323 269.908 221.452 269.908C222.581 269.908 223.522 270.849 223.522 271.979Z" fill="#1554B2"/>
<path d="M680.1 229.951C683.005 212.043 670.846 195.169 652.942 192.262C635.037 189.356 618.167 201.518 615.261 219.426C612.356 237.335 624.515 254.208 642.419 257.115C660.324 260.021 677.194 247.86 680.1 229.951Z" fill="white"/>
<path d="M647.673 258.634C628.946 258.634 613.701 243.385 613.701 224.654C613.701 205.923 628.946 190.675 647.673 190.675C666.4 190.675 681.645 205.923 681.645 224.654C681.645 243.385 666.4 258.634 647.673 258.634ZM647.673 193.028C630.264 193.028 616.054 207.241 616.054 224.654C616.054 242.068 630.264 256.281 647.673 256.281C665.083 256.281 679.293 242.068 679.293 224.654C679.293 207.241 665.177 193.028 647.673 193.028Z" fill="#1554B2"/>
<path d="M641.556 238.867C640.333 238.867 639.204 238.396 638.262 237.455L628.758 227.948C626.97 226.16 626.97 223.148 628.758 221.36C630.546 219.571 633.557 219.571 635.345 221.36L641.744 227.76L660.189 211.571C662.165 209.876 665.082 210.065 666.776 212.041C668.47 214.018 668.282 216.936 666.306 218.63L644.568 237.738C643.815 238.491 642.685 238.867 641.556 238.867Z" fill="#48BD8F" stroke="#1554B2" stroke-width="2" stroke-miterlimit="10"/>
<path d="M463.155 262.416C479.106 253.779 485.036 233.843 476.4 217.888C467.764 201.934 447.833 196.002 431.882 204.64C415.931 213.278 410.001 233.213 418.636 249.168C427.272 265.123 447.204 271.054 463.155 262.416Z" fill="white"/>
<path d="M447.508 267.529C428.781 267.529 413.536 252.281 413.536 233.55C413.536 214.819 428.781 199.57 447.508 199.57C466.235 199.57 481.48 214.819 481.48 233.55C481.48 252.281 466.235 267.529 447.508 267.529ZM447.508 201.923C430.099 201.923 415.889 216.136 415.889 233.55C415.889 250.963 430.099 265.176 447.508 265.176C464.918 265.176 479.128 250.963 479.128 233.55C479.128 216.136 464.918 201.923 447.508 201.923Z" fill="#1554B2"/>
<path d="M463.883 225.831C463.883 216.419 456.26 208.889 446.944 208.889C437.627 208.889 430.005 216.513 430.005 225.831C430.005 228.279 430.569 230.632 431.51 232.703L431.698 233.079C432.075 233.738 432.451 234.491 432.828 235.056L444.591 256.046C446.379 257.74 449.202 257.646 450.802 255.857L461.906 234.114C462.094 233.738 462.377 233.361 462.565 232.891L462.847 232.42C463.412 230.349 463.883 228.184 463.883 225.831ZM446.944 234.867C441.956 234.867 437.909 230.82 437.909 225.831C437.909 220.843 441.956 216.795 446.944 216.795C451.931 216.795 455.978 220.843 455.978 225.831C455.978 230.82 451.931 234.867 446.944 234.867Z" fill="#F1614C"/>
<path d="M447.508 258.399C446.097 258.399 444.779 257.834 443.65 256.893C443.556 256.799 443.462 256.705 443.462 256.61L431.698 235.715C431.228 235.056 430.851 234.303 430.569 233.644L430.381 233.267C430.287 233.173 430.287 232.985 430.287 232.891C429.346 230.632 428.875 228.279 428.875 225.831C428.875 215.854 437.062 207.665 447.038 207.665C457.013 207.665 465.2 215.854 465.2 225.831C465.2 228.184 464.729 230.538 463.882 232.703C463.882 232.797 463.788 232.891 463.788 232.985L463.506 233.456C463.318 233.926 463.13 234.303 462.847 234.679L451.743 256.328C451.743 256.422 451.649 256.516 451.555 256.61C450.614 257.74 449.202 258.305 447.79 258.399C447.602 258.399 447.508 258.399 447.508 258.399ZM445.344 255.293C446.002 255.857 446.755 256.14 447.602 256.046C448.355 256.046 449.108 255.669 449.673 255.104L460.683 233.55C460.871 233.173 461.059 232.797 461.248 232.42L461.342 232.138C461.342 232.044 461.342 232.044 461.436 231.95C462.283 229.973 462.659 227.902 462.659 225.831C462.659 217.078 455.601 210.018 446.849 210.018C438.098 210.018 431.04 217.078 431.04 225.831C431.04 228.09 431.51 230.255 432.357 232.232C432.357 232.326 432.357 232.326 432.451 232.42L432.545 232.514V232.608C432.828 233.267 433.204 233.832 433.581 234.491C433.581 234.491 433.581 234.491 433.581 234.585L445.344 255.293ZM446.943 235.997C441.297 235.997 436.78 231.385 436.78 225.831C436.78 220.184 441.391 215.666 446.943 215.666C452.59 215.666 457.107 220.278 457.107 225.831C457.107 231.385 452.496 235.997 446.943 235.997ZM446.943 217.925C442.615 217.925 439.133 221.407 439.133 225.737C439.133 230.067 442.615 233.55 446.943 233.55C451.272 233.55 454.754 230.067 454.754 225.737C454.754 221.502 451.272 217.925 446.943 217.925Z" fill="#1554B2"/>
<path d="M871.838 270.059L862.334 274.859C861.957 275.048 861.863 275.612 862.24 275.895L871.462 282.013C872.027 282.389 872.685 282.013 872.685 281.354V270.624C872.685 270.153 872.215 269.871 871.838 270.059Z" fill="#1554B2"/>
<path d="M882.497 811.895C890.796 811.895 897.524 805.166 897.524 796.865C897.524 788.564 890.796 781.835 882.497 781.835C874.198 781.835 867.471 788.564 867.471 796.865C867.471 805.166 874.198 811.895 882.497 811.895Z" fill="white"/>
<path d="M882.497 812.102C878.455 812.102 874.621 810.547 871.823 807.645C869.025 804.743 867.367 801.011 867.367 796.969C867.367 792.926 868.921 789.091 871.823 786.292C874.725 783.494 878.455 781.835 882.497 781.835C886.539 781.835 890.373 783.39 893.171 786.292C896.073 789.195 897.627 792.926 897.627 796.969C897.627 801.011 896.073 804.846 893.171 807.645C890.373 810.444 886.539 812.102 882.497 812.102ZM882.497 781.939C878.455 781.939 874.725 783.494 871.927 786.292C869.129 789.091 867.574 792.926 867.574 796.865C867.574 800.907 869.129 804.639 871.927 807.438C874.725 810.236 878.559 811.791 882.497 811.791C886.539 811.791 890.269 810.236 893.067 807.438C895.865 804.639 897.42 800.804 897.42 796.865C897.42 792.822 895.865 789.091 893.067 786.292C890.269 783.494 886.435 781.939 882.497 781.939Z" fill="#1554B2"/>
<path d="M882.497 778.104C870.165 778.104 861.356 789.92 864.88 801.737L879.492 831.9C880.528 834.595 884.466 834.595 885.502 831.9L900.114 801.737C903.638 789.92 894.725 778.104 882.497 778.104ZM882.912 810.34C875.45 810.547 869.336 804.432 869.543 796.969C869.75 790.231 875.243 784.634 882.083 784.427C889.544 784.219 895.658 790.335 895.451 797.798C895.244 804.639 889.648 810.133 882.912 810.34Z" fill="#B5CBEC"/>
<path d="M882.497 833.973C881.046 833.973 879.906 833.144 879.388 831.9L864.776 801.737C863.947 798.834 863.74 795.932 864.362 793.03C864.88 790.335 866.02 787.64 867.678 785.463C869.336 783.183 871.512 781.317 873.999 780.073C876.59 778.726 879.492 778 882.497 778C885.502 778 888.3 778.726 890.995 780.073C893.482 781.317 895.658 783.183 897.316 785.463C898.974 787.743 900.114 790.335 900.632 793.03C901.151 795.932 901.047 798.834 900.218 801.737L885.606 831.9C885.088 833.144 883.844 833.973 882.497 833.973ZM864.983 801.737L879.595 831.9C880.113 833.144 881.15 833.869 882.497 833.869C883.844 833.869 884.984 833.144 885.399 831.9L900.011 801.737C901.669 796.139 900.632 790.231 897.109 785.567C893.586 780.902 888.3 778.207 882.497 778.207C876.694 778.207 871.305 780.902 867.885 785.567C864.362 790.231 863.325 796.139 864.983 801.737ZM882.497 810.444C880.839 810.444 879.181 810.133 877.626 809.511C875.968 808.889 874.517 807.852 873.274 806.608C872.03 805.365 871.098 803.913 870.372 802.255C869.647 800.597 869.336 798.731 869.439 796.969C869.543 793.652 870.89 790.542 873.274 788.158C875.657 785.774 878.766 784.426 882.082 784.323C883.948 784.219 885.71 784.53 887.368 785.256C889.026 785.878 890.477 786.914 891.72 788.158C892.964 789.402 893.896 790.853 894.622 792.512C895.347 794.17 895.658 796.036 895.555 797.798C895.451 801.115 894.104 804.224 891.72 806.608C889.337 808.992 886.228 810.34 882.912 810.444V810.34V810.444C882.808 810.444 882.601 810.444 882.497 810.444ZM882.497 784.634C882.393 784.634 882.186 784.634 882.082 784.634C878.87 784.738 875.761 786.085 873.481 788.365C871.201 790.646 869.854 793.755 869.75 796.969C869.647 798.731 869.958 800.597 870.683 802.255C871.305 803.81 872.238 805.261 873.481 806.505C874.725 807.749 876.175 808.681 877.73 809.303C879.388 809.925 881.15 810.34 883.015 810.236C886.228 810.133 889.337 808.785 891.617 806.505C893.896 804.224 895.244 801.115 895.347 797.902C895.451 796.139 895.14 794.274 894.415 792.615C893.793 791.06 892.86 789.609 891.617 788.365C890.373 787.122 888.922 786.189 887.368 785.567C885.813 784.945 884.155 784.634 882.497 784.634Z" fill="#1554B2"/>
<path d="M882.393 838.326C888.059 838.326 892.653 837.955 892.653 837.497C892.653 837.039 888.059 836.668 882.393 836.668C876.727 836.668 872.134 837.039 872.134 837.497C872.134 837.955 876.727 838.326 882.393 838.326Z" fill="#1554B2"/>
<path d="M293.191 761.333C304.523 761.333 313.71 752.145 313.71 740.81C313.71 729.475 304.523 720.286 293.191 720.286C281.859 720.286 272.672 729.475 272.672 740.81C272.672 752.145 281.859 761.333 293.191 761.333Z" fill="white"/>
<path d="M293.191 761.437C287.698 761.437 282.517 759.26 278.579 755.425C274.641 751.486 272.568 746.303 272.568 740.81C272.568 735.316 274.745 730.133 278.579 726.195C282.517 722.256 287.698 720.183 293.191 720.183C298.683 720.183 303.865 722.359 307.803 726.195C311.741 730.133 313.813 735.316 313.813 740.81C313.813 746.303 311.637 751.486 307.803 755.425C303.865 759.26 298.683 761.437 293.191 761.437ZM293.191 720.39C287.698 720.39 282.621 722.463 278.786 726.402C274.952 730.237 272.776 735.42 272.776 740.81C272.776 746.303 274.848 751.382 278.786 755.218C282.621 759.053 287.802 761.229 293.191 761.229C298.58 761.229 303.761 759.156 307.596 755.218C311.43 751.382 313.606 746.2 313.606 740.81C313.606 735.316 311.534 730.237 307.596 726.402C303.761 722.567 298.58 720.39 293.191 720.39Z" fill="#1554B2"/>
<path d="M293.191 715.207C276.506 715.207 264.485 731.274 269.149 747.34L289.046 788.387C290.497 792.118 295.782 792.118 297.233 788.387L317.13 747.34C321.897 731.377 309.876 715.207 293.191 715.207ZM293.709 759.156C283.553 759.467 275.159 751.175 275.574 741.017C275.885 731.792 283.346 724.329 292.569 724.018C302.725 723.707 311.119 731.999 310.705 742.157C310.497 751.382 302.932 758.845 293.709 759.156Z" fill="#B5CBEC"/>
<path d="M293.191 791.289C291.326 791.289 289.668 790.149 288.942 788.387L269.045 747.34C267.905 743.401 267.698 739.462 268.423 735.523C269.149 731.792 270.703 728.268 272.983 725.158C275.263 722.152 278.268 719.561 281.584 717.799C285.108 715.933 289.046 715 293.087 715C297.129 715 301.067 715.933 304.59 717.799C307.907 719.561 310.912 722.048 313.192 725.158C315.472 728.164 317.026 731.792 317.752 735.523C318.477 739.462 318.27 743.505 317.13 747.34L297.233 788.387C296.714 790.252 295.056 791.289 293.191 791.289ZM269.252 747.34L289.149 788.283C289.771 789.941 291.326 790.978 293.087 790.978C294.849 790.978 296.404 789.941 297.025 788.283L316.922 747.34C319.202 739.773 317.752 731.688 312.985 725.365C308.217 719.042 300.963 715.415 293.087 715.415C285.108 715.415 277.854 719.042 273.19 725.365C268.527 731.688 267.076 739.773 269.252 747.34ZM293.191 759.26C290.911 759.26 288.631 758.845 286.559 758.016C284.382 757.083 282.413 755.839 280.652 754.077C278.994 752.419 277.646 750.346 276.714 748.169C275.781 745.889 275.366 743.401 275.47 740.913C275.574 736.456 277.439 732.206 280.652 728.993C283.864 725.78 288.113 723.914 292.569 723.811C295.056 723.707 297.543 724.121 299.823 725.054C302 725.987 303.969 727.231 305.73 728.993C307.388 730.652 308.736 732.725 309.668 734.901C310.601 737.182 311.016 739.67 310.912 742.157C310.808 746.614 308.943 750.864 305.73 754.077C302.518 757.291 298.269 759.156 293.813 759.26V759.156V759.26C293.606 759.26 293.398 759.26 293.191 759.26ZM293.191 724.018C292.984 724.018 292.776 724.018 292.569 724.018C288.113 724.121 283.968 725.987 280.755 729.097C277.543 732.31 275.781 736.456 275.677 740.913C275.574 743.401 275.988 745.785 276.921 748.065C277.854 750.242 279.097 752.212 280.755 753.87C282.413 755.529 284.382 756.876 286.559 757.705C288.838 758.638 291.222 759.053 293.709 758.949C298.165 758.845 302.311 756.98 305.523 753.87C308.736 750.657 310.497 746.511 310.601 742.054C310.705 739.566 310.29 737.182 309.357 734.901C308.425 732.725 307.181 730.755 305.523 729.097C303.865 727.438 301.896 726.091 299.72 725.262C297.647 724.536 295.471 724.018 293.191 724.018Z" fill="#1554B2"/>
<path d="M293.087 797.197C300.814 797.197 307.077 796.687 307.077 796.057C307.077 795.427 300.814 794.917 293.087 794.917C285.361 794.917 279.097 795.427 279.097 796.057C279.097 796.687 285.361 797.197 293.087 797.197Z" fill="#1554B2"/>
<path d="M506.5 66.3824C513.459 66.3824 519.101 60.7394 519.101 53.7785C519.101 46.8175 513.459 41.1746 506.5 41.1746C499.541 41.1746 493.899 46.8175 493.899 53.7785C493.899 60.7394 499.541 66.3824 506.5 66.3824Z" fill="white"/>
<path d="M506.5 66.4756C503.14 66.4756 499.873 65.1685 497.539 62.7411C495.112 60.3137 493.805 57.1394 493.805 53.7783C493.805 50.4173 495.112 47.1496 497.539 44.8155C499.966 42.3881 503.14 41.0811 506.5 41.0811C509.86 41.0811 513.127 42.3881 515.461 44.8155C517.888 47.243 519.194 50.4173 519.194 53.7783C519.194 57.1394 517.888 60.407 515.461 62.7411C513.034 65.1685 509.86 66.4756 506.5 66.4756ZM506.5 41.1744C503.14 41.1744 499.966 42.4815 497.632 44.8155C495.299 47.1496 493.992 50.3239 493.992 53.685C493.992 57.046 495.299 60.2203 497.632 62.5544C499.966 64.8884 503.14 66.1955 506.5 66.1955C509.86 66.1955 513.034 64.8884 515.367 62.5544C517.701 60.2203 519.008 57.046 519.008 53.685C519.008 50.3239 517.701 47.1496 515.367 44.8155C513.034 42.4815 509.86 41.1744 506.5 41.1744Z" fill="#1554B2"/>
<path d="M506.5 38C496.233 38 488.765 47.8964 491.752 57.7928L503.98 83.094C504.913 85.428 508.18 85.428 509.02 83.094L521.248 57.7928C524.235 47.8964 516.768 38 506.5 38ZM506.874 65.075C500.62 65.2618 495.486 60.1268 495.673 53.8716C495.859 48.1765 500.526 43.6017 506.127 43.415C512.381 43.2283 517.515 48.3632 517.328 54.6185C517.141 60.2202 512.567 64.8883 506.874 65.075Z" fill="#B5CBEC"/>
<path d="M506.5 84.868C505.287 84.868 504.353 84.2145 503.886 83.0941L491.659 57.8863C490.912 55.4589 490.819 53.0315 491.285 50.604C491.752 48.27 492.685 46.1227 494.086 44.2554C495.486 42.3882 497.352 40.801 499.406 39.774C501.646 38.6537 503.98 38.0935 506.5 38.0935C509.02 38.0935 511.447 38.6537 513.594 39.774C515.648 40.801 517.514 42.3882 518.914 44.2554C520.315 46.1227 521.341 48.3633 521.715 50.604C522.181 53.0315 522.088 55.4589 521.341 57.8863L509.114 83.0941C508.647 84.2145 507.62 84.868 506.5 84.868ZM491.752 57.7929L503.98 83.0941C504.353 84.1211 505.287 84.7746 506.407 84.7746C507.527 84.7746 508.46 84.1211 508.834 83.0941L521.061 57.7929C522.461 53.1248 521.528 48.1766 518.634 44.2554C515.741 40.3342 511.26 38.0935 506.313 38.0935C501.46 38.0935 496.979 40.3342 493.992 44.2554C491.285 48.1766 490.352 53.1248 491.752 57.7929ZM506.5 65.1686C505.1 65.1686 503.7 64.8885 502.393 64.3283C500.993 63.7681 499.779 62.9279 498.753 61.9009C497.726 60.8739 496.886 59.6602 496.326 58.2597C495.766 56.8593 495.486 55.3655 495.579 53.7784C495.672 50.9775 496.792 48.3633 498.753 46.4027C500.713 44.4421 503.326 43.3218 506.127 43.2284C507.713 43.1351 509.207 43.4152 510.607 43.9753C512.007 44.5355 513.221 45.3758 514.247 46.4027C515.274 47.4297 516.114 48.6434 516.674 50.0439C517.234 51.4443 517.514 52.9381 517.421 54.5253C517.328 57.3261 516.208 59.9403 514.247 61.9009C512.287 63.8615 509.674 64.9818 506.873 65.0752V64.9818V65.0752C506.687 65.1686 506.593 65.1686 506.5 65.1686ZM506.5 43.4152C506.407 43.4152 506.22 43.4152 506.127 43.4152C503.42 43.5085 500.806 44.6289 498.846 46.5895C496.886 48.5501 495.766 51.1642 495.672 53.8717C495.579 55.3655 495.859 56.8593 496.419 58.2597C496.979 59.5668 497.726 60.7805 498.753 61.8075C499.779 62.8345 500.993 63.6748 502.3 64.1416C503.7 64.7017 505.193 64.9818 506.687 64.8885C509.394 64.7951 512.007 63.6748 513.967 61.7142C515.928 59.7535 517.048 57.1394 517.141 54.4319C517.234 52.9381 516.954 51.4443 516.394 50.0439C515.834 48.7368 515.087 47.5231 514.061 46.4961C513.034 45.4691 511.82 44.6289 510.514 44.1621C509.207 43.6952 507.9 43.4152 506.5 43.4152Z" fill="#1554B2"/>
<path d="M506.407 88.4155C511.149 88.4155 514.994 88.1229 514.994 87.7619C514.994 87.401 511.149 87.1084 506.407 87.1084C501.664 87.1084 497.819 87.401 497.819 87.7619C497.819 88.1229 501.664 88.4155 506.407 88.4155Z" fill="#1554B2"/>
</svg>
